<?xml version="1.0" encoding="UTF-8"?>
<svg width="199px" height="60px" viewBox="0 0 199 60" version="1.1" xmlns="http://www.w3.org/2000/svg" xmlns:xlink="http://www.w3.org/1999/xlink">
    <title>Group 10</title>
    <g id="V6" stroke="none" stroke-width="1" fill="none" fill-rule="evenodd">
        <g id="Group-10">
            <g id="ssc-blueprism-logo-rgb-copy">
                <line x1="91.1145084" y1="18.314323" x2="91.1145084" y2="38.2149259" id="Path" stroke="#636567" stroke-width="2"></line>
                <path d="M44.3620381,32.8139311 C44.3620381,34.2697034 45.5104431,35.3103031 47.1060615,35.3103031 C48.234126,35.3103031 49.2656426,34.7532304 50.2007505,33.828285 L50.1804099,33.8072307 L46.4962631,29.9971305 C45.0073628,30.6750489 44.3620381,31.7103129 44.3620381,32.8139311 Z" id="Path" fill="#1E76BD" fill-rule="nonzero"></path>
                <path d="M50.109218,24.5632565 C50.109218,23.3755654 49.3368345,22.6187657 48.2291105,22.6187657 C47.0552102,22.6187657 46.2828266,23.4648297 46.2828266,24.6841022 C46.2828266,25.5564119 46.6079968,26.1870303 47.5277796,27.2276299 C49.2149305,26.5970116 50.109218,25.8191576 50.109218,24.5579208 L50.109218,24.5632565 Z" id="Path" fill="#1E76BD" fill-rule="nonzero"></path>
                <path d="M30.3876638,25.8951548 C27.2524331,24.8011985 24.5084096,24.0386304 24.5084096,22.1399976 C24.5084096,20.3886003 26.0581921,19.4049625 28.3093056,19.4049625 C30.001472,19.4049625 31.5665796,20.1676748 32.466022,21.6613736 L37.7457873,21.6613736 C36.602537,17.790418 33.0301239,14.9975558 28.4872158,14.9975558 C23.2734876,14.9975558 19.4725915,18.3898876 19.4725915,22.3607789 C19.4725915,26.8051027 23.0652059,28.3409101 26.0226658,29.4296749 C29.508562,30.7392211 32.999613,31.5438977 32.999613,33.9843173 C32.999613,35.6252518 31.4853568,36.9401336 29.0208068,36.9401336 C26.7747088,36.9401336 25.0318304,35.8145959 24.0815367,34.2684056 L18.7153937,34.2684056 C20.1382568,38.6758123 23.6394781,41.531693 28.6701414,41.531693 C34.3055877,41.531693 38.1116385,38.2865969 38.1116385,33.7318103 C38.1116385,28.7353169 33.9905878,27.2048452 30.3978341,25.8951548" id="Path" fill="#1E76BD" fill-rule="nonzero"></path>
                <path d="M11.6774109,25.8951548 C8.54209662,24.8011985 5.79805921,24.0386304 5.79805921,22.1399976 C5.79805921,20.3886003 7.34792535,19.4049625 9.59906671,19.4049625 C11.2912192,19.4049625 12.8563407,20.1676748 13.7557691,21.6613736 L19.0355484,21.6613736 C17.8921588,17.790418 14.3198849,14.9975558 9.77692112,14.9975558 C4.56323471,14.9975558 0.762234163,18.3898876 0.762234163,22.3607789 C0.762234163,26.8051027 4.35489734,28.3409101 7.31235726,29.4296749 C10.7983092,30.7392211 14.2893741,31.5438977 14.2893741,33.9843173 C14.2893741,35.6252518 12.7750343,36.9401336 10.3104843,36.9401336 C8.06442811,36.9401336 6.32145215,35.8145959 5.37120027,34.2684056 L0,34.2684056 C1.42283525,38.6758123 4.92402865,41.531693 9.95477553,41.531693 C15.5901939,41.531693 19.3962448,38.2865969 19.3962448,33.7318103 C19.3962448,28.7353169 15.2751941,27.2048452 11.6824961,25.8951548" id="Path" fill="#1E76BD" fill-rule="nonzero"></path>
                <path d="M77.2294375,34.264512 C75.8472555,35.6158783 73.8654453,36.4625191 71.7719014,36.4625191 C67.3712378,36.4625191 64.0936232,33.2549169 64.0936232,28.2594329 C64.0936232,23.2638048 67.1578014,19.9878483 71.7719014,19.9878483 C73.5047489,19.9878483 75.2577976,20.6030365 76.5892675,21.6600758 L82.92089,21.6600758 C80.7256433,17.6267427 76.594283,14.9975558 71.7668859,14.9975558 C64.688236,14.9975558 58.9815978,20.5767908 58.9815978,28.2646244 C58.9815978,35.952458 64.688236,41.531693 71.7668859,41.531693 C76.8635863,41.531693 81.1727174,38.665862 83.2562304,34.2697034 L77.2244221,34.2697034 L77.2294375,34.264512 Z" id="Path" fill="#1E76BD" fill-rule="nonzero"></path>
                <path d="M38.091298,46.5789474 L59.2677586,46.5789474 L59.2677586,0 L38.091298,0 L38.091298,46.5789474 Z M54.6093552,38.4207096 L51.8487528,35.5610795 L51.8232575,35.5873252 C50.4176699,36.9487861 48.778584,37.7951385 46.7892505,37.7951385 C43.7444377,37.7951385 41.4506927,35.9027065 41.4506927,32.9170393 C41.4506927,30.709226 42.6941131,29.1321753 44.9421616,28.1333958 C44.0032921,26.8718706 43.5821313,25.8309826 43.5821313,24.5642659 C43.5821313,22.256517 45.3633224,20.2694851 48.2913861,20.2694851 C50.8946975,20.2694851 52.6453778,22.0619814 52.6453778,24.395976 C52.6453778,26.7299707 51.2142949,27.9863044 49.037299,28.8378483 L50.1232892,29.9785278 L54.6093552,29.9785278 L54.6093552,38.415374 L54.6093552,38.4207096 Z" id="Shape" fill="#1E76BD" fill-rule="nonzero"></path>
                <path d="M104.074224,22.1790777 C106.496699,22.1790777 108.076575,23.4146456 108.076575,25.358848 C108.076575,27.0304986 107.093541,27.8844941 106.128062,28.3205768 C107.585058,28.7748297 108.761187,29.6469953 108.761187,31.4094965 C108.761187,33.6080805 106.988216,34.8981587 104.302428,34.8981587 L98.8430807,34.8981587 L98.8430807,22.1790777 L104.074224,22.1790777 Z M103.846019,27.8481538 C105.513666,27.8481538 106.672241,27.0668388 106.672241,25.5587192 C106.672241,24.2868111 105.706762,23.4691559 103.951345,23.4691559 L100.212306,23.4691559 L100.212306,27.8481538 L103.846019,27.8481538 Z M104.337536,33.6080805 C106.198278,33.6080805 107.356854,32.7540851 107.356854,31.3186459 C107.356854,29.919547 106.233387,29.1200619 104.091778,29.1200619 L100.212306,29.1200619 L100.212306,33.6080805 L104.337536,33.6080805 Z M112.757966,34.8981587 L111.406295,34.8981587 L111.406295,21.6339743 L112.757966,21.6339743 L112.757966,34.8981587 Z M122.33711,30.8825631 L122.33711,25.5042089 L123.671227,25.5042089 L123.671227,34.8981587 L122.33711,34.8981587 L122.33711,33.2628483 C121.722714,34.2803748 120.792343,35.09803 119.230022,35.09803 C117.03575,35.09803 115.754296,33.5717403 115.754296,31.336816 L115.754296,25.5042089 L117.105967,25.5042089 L117.105967,30.9915838 C117.105967,32.7359149 118.018784,33.8261219 119.616213,33.8261219 C121.16098,33.8261219 122.33711,32.6450644 122.33711,30.8825631 Z M127.519352,30.7190321 C127.712448,32.7540851 129.116782,33.8988023 130.714211,33.8988023 C131.960557,33.8988023 132.838266,33.371869 133.575541,32.5723839 L134.418141,33.3536989 C133.505324,34.4075656 132.399412,35.1162001 130.679103,35.1162001 C128.186411,35.1162001 126.150127,33.1356575 126.150127,30.2102689 C126.150127,27.4847515 127.993315,25.3043376 130.503561,25.3043376 C133.189349,25.3043376 134.734116,27.5210917 134.734116,30.2829493 C134.734116,30.4101401 134.734116,30.5555011 134.716562,30.7190321 L127.519352,30.7190321 Z M127.519352,29.6833355 L133.364891,29.6833355 C133.224458,27.9753446 132.276533,26.4853951 130.468453,26.4853951 C128.888577,26.4853951 127.694894,27.8481538 127.519352,29.6833355 Z M151.789248,26.2310135 C151.789248,28.9928711 149.578258,30.4101401 146.961851,30.4101401 L143.977642,30.4101401 L143.977642,34.8981587 L142.591419,34.8981587 L142.591419,22.1790777 L147.190334,22.1790777 C149.964171,22.1790777 151.789248,23.7053674 151.789248,26.2310135 Z M150.384914,26.2855239 C150.384914,24.4503422 149.068351,23.5054962 147.085844,23.5054962 L143.977642,23.5054962 L143.977642,29.1018918 L147.014792,29.1018918 C149.051633,29.1018918 150.384914,27.9753446 150.384914,26.2855239 Z M155.440794,31.1551149 L155.440794,34.8981587 L154.089402,34.8981587 L154.089402,25.5042089 L155.440794,25.5042089 L155.440794,27.9571745 C156.108131,26.3945446 157.424694,25.2679974 159.143888,25.3406779 L159.143888,26.8487975 L159.039399,26.8487975 C157.055499,26.8487975 155.440794,28.3205768 155.440794,31.1551149 Z M162.782896,23.4509858 L161.23785,23.4509858 L161.23785,21.906526 L162.782896,21.906526 L162.782896,23.4509858 Z M162.677014,34.8981587 L161.325621,34.8981587 L161.325621,25.5042089 L162.677014,25.5042089 L162.677014,34.8981587 Z M172.046204,32.2634919 C172.046204,34.0441633 170.623759,35.0798599 168.816794,35.0798599 C167.516949,35.0798599 166.077786,34.5529265 165.059365,33.6989311 L165.744814,32.6995747 C166.727012,33.4627196 167.815092,33.8988023 168.886453,33.8988023 C169.974533,33.8988023 170.764471,33.3173586 170.764471,32.4088529 L170.764471,32.3725126 C170.764471,31.4276666 169.694503,31.0642643 168.50054,30.7190321 C167.078095,30.3011194 165.49822,29.7923562 165.49822,28.0661952 L165.49822,28.029855 C165.49822,26.4127147 166.798064,25.3406779 168.588311,25.3406779 C169.694503,25.3406779 170.923295,25.7404204 171.852551,26.3763745 L171.238155,27.4302412 C170.396669,26.8669676 169.43119,26.5217354 168.553481,26.5217354 C167.48212,26.5217354 166.798064,27.1031791 166.798064,27.8844941 L166.798064,27.9208343 C166.798064,28.81117 167.920974,29.1564022 169.131655,29.5379746 C170.535988,29.9740574 172.046204,30.5373309 172.046204,32.2271517 L172.046204,32.2634919 Z M181.75394,27.1758595 C182.404559,26.1401629 183.370038,25.3043376 184.949913,25.3043376 C187.038303,25.3043376 188.320036,26.7579469 188.320036,29.0837217 L188.320036,34.8981587 L186.968643,34.8981587 L186.968643,29.4107838 C186.968643,27.5937722 186.090935,26.5762457 184.615548,26.5762457 C183.246044,26.5762457 182.105023,27.6301124 182.105023,29.4834642 L182.105023,34.8981587 L180.771742,34.8981587 L180.771742,29.3744435 C180.771742,27.6119423 179.875922,26.5762457 178.436759,26.5762457 C176.997595,26.5762457 175.909515,27.8118136 175.909515,29.5379746 L175.909515,34.8981587 L174.556729,34.8981587 L174.556729,25.5042089 L175.909515,25.5042089 L175.909515,27.085009 C176.5058,26.1583331 177.313849,25.3043376 178.840783,25.3043376 C180.314776,25.3043376 181.263537,26.1219928 181.75394,27.1758595 Z" id="Shape" fill="#636567" fill-rule="nonzero"></path>
                <path d="M195.735976,27.1109663 C194.248051,27.1109663 193.095885,25.8762636 193.095885,24.3789596 C193.095885,22.8815113 194.263377,21.6310901 195.749908,21.6310901 C197.237833,21.6310901 198.39,22.8657927 198.39,24.3630968 C198.39,25.8605451 197.222508,27.1109663 195.735976,27.1109663 Z M195.755481,21.86759 C194.380404,21.86759 193.345266,23.002357 193.345266,24.3789596 C193.345266,25.755418 194.374832,26.879802 195.740156,26.879802 C197.10548,26.879802 198.155944,25.7448908 198.155944,24.3684325 C198.155944,22.9918299 197.126378,21.86759 195.761054,21.86759 L195.755481,21.86759 Z M196.243097,24.5680153 L197.085976,25.6975908 L196.588608,25.6975908 L195.807029,24.6363696 L195.110435,24.6363696 L195.110435,25.6975908 L194.71059,25.6975908 L194.71059,22.886847 L195.928236,22.886847 C196.527307,22.886847 196.953623,23.212467 196.953623,23.7326226 C196.953623,24.1949511 196.65966,24.4682239 196.252849,24.5680153 L196.24867,24.5680153 L196.243097,24.5680153 Z M195.912911,23.2651027 L195.110435,23.2702941 L195.110435,24.268641 L195.887834,24.268641 C196.268174,24.268641 196.53288,24.0846326 196.53288,23.7590125 C196.53288,23.4332483 196.298825,23.2651027 195.912911,23.2651027 Z" id="Shape" fill="#636567" fill-rule="nonzero"></path>
            </g>
            <rect id="Rectangle" x="0" y="0" width="198" height="60"></rect>
        </g>
    </g>
</svg>